<?xml version="1.0" encoding="UTF-8" standalone="no"?>
<svg
   width="1500"
   height="500"
   version="1.1"
   id="svg95"
   xmlns:inkscape="http://www.inkscape.org/namespaces/inkscape"
   xmlns:sodipodi="http://sodipodi.sourceforge.net/DTD/sodipodi-0.dtd"
   xmlns="http://www.w3.org/2000/svg"
   xmlns:svg="http://www.w3.org/2000/svg">
  <sodipodi:namedview
     id="namedview97"
     pagecolor="#ffffff"
     bordercolor="#000000"
     borderopacity="0.25"
     inkscape:showpageshadow="2"
     inkscape:pageopacity="0.0"
     inkscape:pagecheckerboard="0"
     inkscape:deskcolor="#d1d1d1" />
  <defs
     id="defs2" />
  <g
     transform="matrix(0.79617834,0,0,0.79617834,410.45124,119.42675)"
     id="g93">
    <g
       fill="#20c997"
       id="g87">
      <svg
         width="400"
         height="328"
         viewBox="0 0 400 328"
         version="1.1"
         id="svg85">
        <defs
           id="defs4" />
        <g
           id="g83">
          <g
             id="g81">
            <g
               id="g7">
              <path
                 style="opacity:1;fill-rule:nonzero;stroke:none;stroke-width:1;stroke-linecap:butt;stroke-linejoin:miter;stroke-miterlimit:4;stroke-dasharray:none;stroke-dashoffset:0"
                 d="m 99.608481,172.63732 c 10.583109,32.81895 31.739039,58.19166 60.495469,76.59125 14.57362,9.32836 30.85453,16.04436 46.38465,23.77857 2.87976,1.41931 5.92407,1.4913 8.22788,-1.68672 2.3038,-3.17802 0.79193,-5.61552 -0.95649,-7.95018 -12.81492,-16.95972 -15.6124,-36.3158 -14.17252,-56.86492 1.73814,-24.9716 16.85686,-45.76756 40.19318,-52.9361 7.68278,-2.36552 16.14721,-2.20096 24.26195,-3.08546 4.91616,-0.52452 10.05858,-0.0926 14.76904,-1.34731 14.12109,-3.75397 19.6132,-15.03645 22.36954,-27.97478 1.12105,-5.25556 2.48893,-9.94545 5.93436,-14.39879 7.30224,-9.256358 6.77771,-11.920133 -1.2239,-20.569689 -12.07441,-13.061754 -24.35452,-25.958951 -35.9044,-39.462954 -13.3703,-15.663821 -30.68998,-22.318116 -50.55002,-23.38774 -14.5222,-0.771364 -28.98269,0.07199 -43.10379,3.959665 -1.85127,-3.589411 -3.36314,-7.014265 -5.30698,-10.192282 -12.56808,-20.4257045 -39.96691,-23.0483402 -54.8388,-5.245272 -13.00004,15.560973 -9.95573,45.150475 5.95493,57.759696 0.92564,0.740509 2.05697,1.830703 3.02374,1.810133 3.20888,-0.09256 7.1994,0.390824 9.40035,-1.275321 2.47491,-2.169483 3.87035,-5.317698 3.81568,-8.608416 -0.28797,-3.198587 -2.66377,-6.530877 -4.8853,-9.163798 -4.51505,-5.34812 -7.19939,-11.189912 -6.76743,-18.224747 0.74051,-11.148773 11.31333,-18.430444 20.43599,-13.966821 6.80661,3.228437 11.5061,9.694603 12.47552,17.165408 2.14953,13.699415 2.13925,12.681215 15.35527,9.143228 13.92569,-3.723114 28.01592,-6.32518 42.53813,-5.636095 11.90985,0.565666 18.96525,5.893216 22.16384,15.715244 -8.73183,2.3758 -17.48424,4.679605 -26.2675,7.199393 -2.48893,0.709654 -4.11393,0.95649 -6.09891,-1.573582 -2.57121,-3.31172 -6.788,-4.165362 -10.00716,-1.357599 -1.68671,1.481017 -2.68434,5.255556 -2.05696,7.507937 1.02848,3.959666 4.89558,5.296696 8.70098,4.319636 1.97469,-0.514243 3.54827,-2.602066 5.19384,-3.887672 4.2785,0.195412 8.73184,0.195412 13.11318,0.689084 2.05697,0.226267 4.05223,1.316461 5.99607,2.190673 3.93909,1.768993 7.79591,5.039574 11.74529,5.142423 5.14242,0.123418 6.73658,2.303805 8.1456,6.386889 2.35523,6.829138 0,12.742925 -2.93118,18.656709 -5.54353,11.05621 -4.2065,21.14565 4.24764,30.24773 0.495,0.55472 0.92305,1.16572 1.27532,1.82042 -8.58785,2.05697 -17.62823,2.86947 -25.61955,6.17091 -27.76909,11.61159 -41.76676,33.88857 -44.76994,63.05639 -1.20332,11.72473 0,23.65515 0.13371,35.89411 -7.83706,-5.66695 -16.79516,-11.10763 -24.52936,-17.93677 -33.17892,-29.32209 -47.90682,-65.72016 -40.59429,-110.04785 0.75079,-4.5459 2.12896,-8.96839 3.08545,-13.483434 1.02849,-5.214417 -1.16218,-9.688325 -5.44068,-11.498458 -4.2785,-1.810133 -9.17408,-0.154273 -12.07441,4.227072 -1.377918,2.157198 -2.418392,4.512136 -3.085452,6.98341 -6.822191,24.74318 -6.214138,50.94669 1.748423,75.34678 v 0 M 244.9745,46.287988 c 19.98345,13.123464 34.37195,31.379066 51.84591,46.559499 h -16.26035 c 0.23656,6.386889 3.98024,10.439123 7.56965,14.511913 5.07043,5.7698 5.02929,9.43121 -0.40111,17.81336 -3.63055,5.61552 -10.04829,8.22788 -15.91065,6.3766 -11.31334,-3.50713 -17.56652,-14.48106 -13.0309,-25.33157 4.63846,-11.066498 3.33229,-21.330774 -1.21362,-31.718469 -3.95966,-9.01981 -8.05303,-18.01905 -12.59893,-28.211333"
                 class="c1"
                 id="i1" />
            </g>
            <g
               id="g10">
              <path
                 style="opacity:1;fill-rule:nonzero;stroke:none;stroke-width:1;stroke-linecap:butt;stroke-linejoin:miter;stroke-miterlimit:4;stroke-dasharray:none;stroke-dashoffset:0"
                 d="m 395.66806,179.09621 c -5.19385,-3.91853 -10.53168,-2.61235 -15.24214,3.7334 -1.32674,1.78956 -2.5815,3.63055 -3.96995,5.36869 -29.62036,37.26199 -66.8515,64.95908 -109.12222,86.09444 -41.8079,20.91938 -86.00188,33.08635 -133.1579,34.0017 -11.56017,-1.14161 -23.23347,-1.65586 -34.670217,-3.55855 C 74.544311,300.56024 52.298189,290.69707 36.17155,270.27137 24.415971,255.36863 18.45076,238.38834 20.662002,219.16597 c 0.781649,-6.88056 -1.851272,-12.4241 -5.862362,-17.48424 -0.802218,-1.02849 -4.206502,-1.42959 -5.0909987,-0.63766 -4.5973262,4.11394 -8.7009799,8.79354 -9.25636155,15.42727 -1.66614505,18.85212 1.13133305,36.7169 10.72709425,53.42977 14.974736,26.08237 37.47798,42.00331 65.884725,50.39575 35.194741,10.43912 70.821451,9.1638 106.221891,2.49922 64.91795,-12.20812 122.69821,-39.95663 172.06548,-83.99634 14.8616,-13.26745 27.76908,-28.79757 41.20109,-43.58718 5.10128,-5.57439 4.31963,-12.13612 -0.8845,-16.11635"
                 class="c1"
                 id="i2" />
            </g>
            <g
               id="g13">
              <path
                 style="opacity:1;fill-rule:nonzero;stroke:none;stroke-width:1;stroke-linecap:butt;stroke-linejoin:miter;stroke-miterlimit:4;stroke-dasharray:none;stroke-dashoffset:0"
                 d="m 278.04028,192.4048 c -17.03171,11.807 -35.46215,21.15593 -56.12441,25.36243 -6.39717,1.30617 -9.04038,5.75951 -7.89876,11.6733 1.02848,5.07043 5.73894,8.54671 11.4676,7.97075 2.88214,-0.34505 5.71737,-1.00729 8.45415,-1.97469 48.16393,-16.10607 87.0715,-44.5848 115.19027,-87.09207 19.11953,-28.79757 29.33238,-60.680596 30.85454,-97.706042 -0.74051,-5.276126 -1.32674,-12.969191 -3.02374,-20.405134 -1.16219,-5.142423 -6.28404,-7.579932 -11.23105,-6.777714 -4.74132,0.771363 -7.97076,4.926441 -7.97076,10.387695 -0.0229,1.721547 0.10095,3.441915 0.37025,5.142423 2.37651,14.743347 1.71856,29.816633 -1.93355,44.296832 -11.18991,46.88861 -39.17498,82.10393 -78.15454,109.12222"
                 class="c1"
                 id="i3" />
            </g>
            <g
               id="g16">
              <path
                 style="opacity:1;fill-rule:nonzero;stroke:none;stroke-width:1;stroke-linecap:butt;stroke-linejoin:miter;stroke-miterlimit:4;stroke-dasharray:none;stroke-dashoffset:0"
                 d="m 77.105238,283.19942 c 4.309351,3.21916 9.616331,1.30617 12.568082,-2.95175 2.951751,-4.25793 2.550642,-7.72392 -1.470733,-11.89957 -1.565808,-1.57326 -3.210048,-3.06646 -4.926441,-4.47391 -8.556992,-7.2611 -16.003221,-15.49926 -21.227923,-25.47556 -12.71207,-24.21053 -14.604481,-49.99464 -9.750034,-76.36498 5.36869,-29.12669 19.047535,-54.26285 38.43447,-76.478119 2.056969,-2.303806 3.887672,-5.409829 4.237357,-8.330725 0.588533,-4.284586 -2.02949,-8.359975 -6.170908,-9.606047 -5.142423,-1.840987 -8.947816,0.647946 -12.177258,4.340205 -29.291242,33.446316 -47.11488,71.479686 -46.569783,116.825566 -0.843357,28.74615 7.765059,54.38627 26.42177,76.221 5.913786,6.91141 13.308591,12.6915 20.631401,18.19389"
                 class="c1"
                 id="i4" />
            </g>
            <g
               id="g19">
              <path
                 style="opacity:1;fill-rule:nonzero;stroke:none;stroke-width:1;stroke-linecap:butt;stroke-linejoin:miter;stroke-miterlimit:4;stroke-dasharray:none;stroke-dashoffset:0"
                 d="m 104.7509,256.56167 c 4.65147,-0.0705 8.41618,-3.80345 8.52614,-8.45415 -0.0159,-2.15391 -0.89622,-4.21119 -2.44329,-5.70991 -1.54707,-1.49872 -3.63125,-2.3133 -5.78459,-2.26084 -4.74131,0 -7.909042,3.35286 -7.734199,8.22788 0.123418,4.65903 3.250009,8.11474 7.435939,8.19702"
                 class="c1"
                 id="i5" />
            </g>
            <g
               id="g22">
              <path
                 style="opacity:1;fill-rule:nonzero;stroke:none;stroke-width:1;stroke-linecap:butt;stroke-linejoin:miter;stroke-miterlimit:4;stroke-dasharray:none;stroke-dashoffset:0"
                 d="m 131.9029,259.70883 c -1.989,0.1164 -3.84959,1.02074 -5.16991,2.51286 -1.32032,1.49212 -1.99149,3.44895 -1.86493,5.43733 -0.0138,1.99691 0.79549,3.91136 2.2374,5.29294 1.44191,1.38159 3.38917,2.10834 5.38367,2.0093 4.11993,-0.15983 7.38137,-3.53921 7.39481,-7.66221 -0.003,-2.08076 -0.8581,-4.06949 -2.36587,-5.50342 -1.50777,-1.43394 -3.53688,-2.18803 -5.61517,-2.0868"
                 class="c1"
                 id="i6" />
            </g>
            <g
               id="g25">
              <path
                 style="opacity:1;fill-rule:nonzero;stroke:none;stroke-width:1;stroke-linecap:butt;stroke-linejoin:miter;stroke-miterlimit:4;stroke-dasharray:none;stroke-dashoffset:0"
                 d="m 156.12371,275.79433 c -0.12342,4.44305 3.32201,8.33073 7.29196,8.22788 3.96995,-0.10285 7.28167,-3.70255 7.35366,-7.83706 -0.005,-1.98383 -0.80219,-3.88349 -2.21363,-5.27757 -1.41145,-1.39407 -3.32084,-2.16727 -5.30459,-2.14808 -4.2065,-0.0206 -6.96284,2.76662 -7.1274,7.03483"
                 class="c1"
                 id="i7" />
            </g>
            <g
               id="g28">
              <path
                 style="opacity:1;fill-rule:nonzero;stroke:none;stroke-width:1;stroke-linecap:butt;stroke-linejoin:miter;stroke-miterlimit:4;stroke-dasharray:none;stroke-dashoffset:0"
                 d="m 108.15519,292.43521 c 3.79511,0.0617 8.01189,-4.11394 7.97075,-7.81648 -0.24353,-4.06991 -3.5558,-7.2795 -7.63135,-7.39481 -4.11394,-0.0514 -7.2611,3.08546 -7.41538,7.40509 -0.14398,3.98024 3.2603,7.74449 7.07598,7.8062"
                 class="c1"
                 id="i8" />
            </g>
            <g
               id="g31">
              <path
                 style="opacity:1;fill-rule:nonzero;stroke:none;stroke-width:1;stroke-linecap:butt;stroke-linejoin:miter;stroke-miterlimit:4;stroke-dasharray:none;stroke-dashoffset:0"
                 d="m 78.63768,196.88899 c 0.07199,-4.47391 -3.085454,-7.55936 -7.744489,-7.51822 -4.113939,0 -6.870277,3.08545 -6.880562,7.75477 -0.05408,1.97192 0.703355,3.87965 2.095316,5.27744 1.391961,1.3978 3.296507,2.1632 5.268634,2.11737 4.103084,-0.12326 7.341893,-3.52722 7.261101,-7.63136"
                 class="c1"
                 id="i9" />
            </g>
            <g
               id="g34">
              <path
                 style="opacity:1;fill-rule:nonzero;stroke:none;stroke-width:1;stroke-linecap:butt;stroke-linejoin:miter;stroke-miterlimit:4;stroke-dasharray:none;stroke-dashoffset:0"
                 d="m 85.569666,167.1555 c 0.02615,-1.97531 -0.769881,-3.87263 -2.197618,-5.23795 -1.427737,-1.36532 -3.358718,-2.07581 -5.330889,-1.96144 -4.113938,0.11313 -6.901132,2.97232 -6.952556,7.19939 -0.06171,4.52533 2.838618,7.56965 7.199392,7.55936 4.360775,-0.0103 7.250817,-3.0546 7.281671,-7.55936"
                 class="c1"
                 id="i10" />
            </g>
            <g
               id="g37">
              <path
                 style="opacity:1;fill-rule:nonzero;stroke:none;stroke-width:1;stroke-linecap:butt;stroke-linejoin:miter;stroke-miterlimit:4;stroke-dasharray:none;stroke-dashoffset:0"
                 d="m 143.15452,186.05905 c -0.006,4.11411 3.32184,7.45545 7.43594,7.4668 1.88224,-0.001 3.68259,-0.76996 4.98509,-2.12875 1.3025,-1.3588 1.99447,-3.19004 1.91605,-5.07065 0.011,-2.05732 -0.80138,-4.03357 -2.25615,-5.48834 -1.45477,-1.45477 -3.43102,-2.26716 -5.48834,-2.25615 -4.08309,0.18513 -6.70572,3.14717 -6.59259,7.47709"
                 class="c1"
                 id="i11" />
            </g>
            <g
               id="g40">
              <path
                 style="opacity:1;fill-rule:nonzero;stroke:none;stroke-width:1;stroke-linecap:butt;stroke-linejoin:miter;stroke-miterlimit:4;stroke-dasharray:none;stroke-dashoffset:0"
                 d="m 105.90281,217.70552 c -0.10865,-4.0842 -3.40276,-7.36473 -7.487371,-7.45651 -4.299065,0 -7.127398,2.60206 -7.271386,6.79828 -0.143988,4.19622 2.951751,7.82677 6.952556,7.86791 4.000801,0.0411 7.909051,-3.56885 7.806201,-7.20968"
                 class="c1"
                 id="i12" />
            </g>
            <g
               id="g43">
              <path
                 style="opacity:1;fill-rule:nonzero;stroke:none;stroke-width:1;stroke-linecap:butt;stroke-linejoin:miter;stroke-miterlimit:4;stroke-dasharray:none;stroke-dashoffset:0"
                 d="m 74.523742,235.98169 c 1.912205,0.1413 3.801779,-0.48602 5.249795,-1.7429 1.448017,-1.25688 2.334834,-3.03946 2.463839,-4.95253 0.0087,-2.07633 -0.820095,-4.06846 -2.298897,-5.52597 -1.478801,-1.45751 -3.482747,-2.2573 -5.558725,-2.21852 -1.992549,0.0382 -3.880128,0.90061 -5.213318,2.38193 -1.33319,1.48132 -1.992704,3.449 -1.821517,5.43455 0.390824,4.11394 3.116308,6.32518 7.178823,6.62344"
                 class="c1"
                 id="i13" />
            </g>
            <g
               id="g46">
              <path
                 style="opacity:1;fill-rule:nonzero;stroke:none;stroke-width:1;stroke-linecap:butt;stroke-linejoin:miter;stroke-miterlimit:4;stroke-dasharray:none;stroke-dashoffset:0"
                 d="m 137.58013,97.115698 c -4.04194,-0.195412 -6.788,2.530072 -7.0554,6.983412 -0.26741,4.45334 2.39637,7.7342 6.67486,7.92961 3.7334,0.16456 7.5388,-3.02374 7.84734,-6.59258 0.30855,-3.56884 -3.7334,-8.135315 -7.4668,-8.320442"
                 class="c1"
                 id="i14" />
            </g>
            <g
               id="g49">
              <path
                 style="opacity:1;fill-rule:nonzero;stroke:none;stroke-width:1;stroke-linecap:butt;stroke-linejoin:miter;stroke-miterlimit:4;stroke-dasharray:none;stroke-dashoffset:0"
                 d="m 153.60392,88.94953 c 3.90424,-0.191308 6.97652,-3.403643 6.9937,-7.312525 0.0556,-1.890221 -0.65659,-3.722401 -1.97424,-5.078805 -1.31765,-1.356403 -3.12842,-2.121406 -5.01946,-2.120588 -1.98072,-0.05693 -3.89526,0.715682 -5.2817,2.13141 -1.38644,1.415728 -2.11885,3.346006 -2.02054,5.325104 0.17964,3.915369 3.38301,7.010461 7.30224,7.055404"
                 class="c1"
                 id="i15" />
            </g>
            <g
               id="g52">
              <path
                 style="opacity:1;fill-rule:nonzero;stroke:none;stroke-width:1;stroke-linecap:butt;stroke-linejoin:miter;stroke-miterlimit:4;stroke-dasharray:none;stroke-dashoffset:0"
                 d="m 77.825177,141.03199 c 3.897804,-0.19935 7.043843,-3.25739 7.353665,-7.14797 0.133703,-3.77454 -3.085454,-7.47708 -6.757144,-7.68278 -3.404284,-0.19541 -6.993695,3.40429 -7.199392,7.1994 -0.205697,3.7951 2.962036,7.61078 6.602871,7.63135"
                 class="c1"
                 id="i16" />
            </g>
            <g
               id="g55">
              <path
                 style="opacity:1;fill-rule:nonzero;stroke:none;stroke-width:1;stroke-linecap:butt;stroke-linejoin:miter;stroke-miterlimit:4;stroke-dasharray:none;stroke-dashoffset:0"
                 d="m 152.05091,138.36822 c 3.9442,2.5e-4 7.15432,-3.17317 7.19939,-7.11712 0.21816,-3.75512 -2.6153,-6.9914 -6.36632,-7.27138 -1.89572,-0.10345 -3.75403,0.55592 -5.16059,1.8311 -1.40656,1.27518 -2.24442,3.06013 -2.32677,4.95689 -0.1644,1.89922 0.45245,3.78339 1.70818,5.21767 1.25573,1.43429 3.04183,2.29476 4.94611,2.38284"
                 class="c1"
                 id="i17" />
            </g>
            <g
               id="g58">
              <path
                 style="opacity:1;fill-rule:nonzero;stroke:none;stroke-width:1;stroke-linecap:butt;stroke-linejoin:miter;stroke-miterlimit:4;stroke-dasharray:none;stroke-dashoffset:0"
                 d="m 128.60146,159.98696 c -0.0893,1.80829 0.55642,3.57585 1.7903,4.90077 1.23389,1.32493 2.95109,2.09462 4.76115,2.13407 3.46599,0.0823 7.43594,-3.60998 7.57993,-7.05541 0.14399,-3.44542 -3.322,-6.77771 -6.93199,-6.94227 -1.89626,-0.0972 -3.74782,0.59702 -5.11268,1.91703 -1.36486,1.32002 -2.12056,3.14735 -2.08671,5.04581"
                 class="c1"
                 id="i18" />
            </g>
            <g
               id="g61">
              <path
                 style="opacity:1;fill-rule:nonzero;stroke:none;stroke-width:1;stroke-linecap:butt;stroke-linejoin:miter;stroke-miterlimit:4;stroke-dasharray:none;stroke-dashoffset:0"
                 d="m 179.94341,76.885406 c -3.75396,0 -6.32518,3.250011 -6.1709,7.837052 0.1337,4.257927 2.70491,6.119484 6.53087,6.345751 3.75513,-0.02162 6.80809,-3.033509 6.88057,-6.787999 -0.10285,-3.67169 -3.70255,-7.34338 -7.24054,-7.394804"
                 class="c1"
                 id="i19" />
            </g>
            <g
               id="g64">
              <path
                 style="opacity:1;fill-rule:nonzero;stroke:none;stroke-width:1;stroke-linecap:butt;stroke-linejoin:miter;stroke-miterlimit:4;stroke-dasharray:none;stroke-dashoffset:0"
                 d="m 179.54231,128.13479 c -4.38135,0 -5.85208,3.00318 -6.17091,6.64401 -0.0757,3.92184 3.00203,7.18253 6.9217,7.3331 3.74839,-0.34759 6.55159,-3.59597 6.34691,-7.35487 -0.20468,-3.75891 -3.34402,-6.68371 -7.10799,-6.62224 h 0.0103"
                 class="c1"
                 id="i20" />
            </g>
            <g
               id="g67">
              <path
                 style="opacity:1;fill-rule:nonzero;stroke:none;stroke-width:1;stroke-linecap:butt;stroke-linejoin:miter;stroke-miterlimit:4;stroke-dasharray:none;stroke-dashoffset:0"
                 d="m 196.93398,118.99157 c 4.11394,-0.2057 6.17091,-2.54036 6.55145,-6.17091 -0.0926,-3.96995 -3.70255,-7.72392 -7.19939,-7.78563 -3.7334,-0.072 -6.39718,3.08545 -6.17091,7.19939 0.22626,4.11394 3.04431,6.94227 6.81885,6.75715"
                 class="c1"
                 id="i21" />
            </g>
            <g
               id="g70">
              <path
                 style="opacity:1;fill-rule:nonzero;stroke:none;stroke-width:1;stroke-linecap:butt;stroke-linejoin:miter;stroke-miterlimit:4;stroke-dasharray:none;stroke-dashoffset:0"
                 d="m 168.1467,102.40211 c -1.79293,-0.10051 -3.54471,0.5621 -4.82231,1.82402 -1.2776,1.26192 -1.96178,3.00539 -1.88341,4.79942 -0.0964,1.80541 0.55643,3.57059 1.80433,4.87884 1.2479,1.30826 2.98031,2.04365 4.78825,2.03258 1.80993,0.0671 3.5692,-0.60536 4.87296,-1.86255 1.30376,-1.2572 2.0397,-2.99087 2.03846,-4.80203 -0.13498,-3.7094 -3.09051,-6.69624 -6.79828,-6.87028"
                 class="c1"
                 id="i22" />
            </g>
            <g
               id="g73">
              <path
                 style="opacity:1;fill-rule:nonzero;stroke:none;stroke-width:1;stroke-linecap:butt;stroke-linejoin:miter;stroke-miterlimit:4;stroke-dasharray:none;stroke-dashoffset:0"
                 d="m 119.73593,132.45443 c 0.0514,3.60998 3.08545,6.25319 7.25081,6.30461 3.85682,0 6.43832,-2.66378 6.53088,-6.83942 0.072,-3.51742 -3.14716,-6.43832 -7.11711,-6.43832 -3.74201,0.13898 -6.69498,3.22867 -6.66458,6.97313"
                 class="c1"
                 id="i23" />
            </g>
            <g
               id="g76">
              <path
                 style="opacity:1;fill-rule:nonzero;stroke:none;stroke-width:1;stroke-linecap:butt;stroke-linejoin:miter;stroke-miterlimit:4;stroke-dasharray:none;stroke-dashoffset:0"
                 d="m 156.48368,156.60325 c -0.1325,1.79321 0.46975,3.56324 1.66844,4.90351 1.19868,1.34028 2.89077,2.13561 4.6876,2.20332 3.72965,-0.008 6.79303,-2.94862 6.95255,-6.67487 0,-3.55856 -3.58941,-7.38452 -7.19939,-7.14797 -4.00081,0.28798 -5.9035,2.84891 -6.1092,6.71601"
                 class="c1"
                 id="i24" />
            </g>
            <g
               id="g79">
              <path
                 style="opacity:1;fill-rule:nonzero;stroke:none;stroke-width:1;stroke-linecap:butt;stroke-linejoin:miter;stroke-miterlimit:4;stroke-dasharray:none;stroke-dashoffset:0"
                 d="m 222.4404,92.878341 c -0.1337,-3.825962 -3.03403,-6.170907 -7.38452,-5.98578 -4.11394,0.133703 -5.84179,2.550642 -5.99607,6.170908 -0.039,1.820421 0.66063,3.57909 1.93941,4.875306 1.27878,1.296217 3.02781,2.019572 4.84859,2.005256 3.75006,-0.177607 6.67489,-3.312326 6.59259,-7.06569"
                 class="c1"
                 id="i25" />
            </g>
          </g>
        </g>
      </svg>
    </g>
    <g
       transform="translate(490.76056,230.52394)"
       id="g91">
      <g
         aria-label="دبل"
         transform="scale(1.8478873)"
         id="text89"
         style="font-size:150px;font-family:f249229;fill:#20c997">
        <path
           d="m 142.79997,-4.5 4.05,-12.75 q 4.35,1.65 9.3,2.85 5.1,1.05 9.6,1.05 5.25,0 8.55,-1.2 3.45,-1.2 5.1,-3.9 1.8,-2.7 1.8,-6.75 0,-2.85 -1.2,-7.5 -1.05,-4.8 -4.95,-12.6 -3.9,-7.8 -12.15,-19.8 l 12.45,-7.8 q 7.2,10.65 11.7,19.65 4.5,9 6.6,16.2 2.25,7.2 2.25,12.6 0,6.6 -3,12.3 -3,5.7 -9.6,9.3 -6.45,3.6 -16.8,3.6 -3.9,0 -8.4,-0.6 -4.35,-0.6 -8.4,-1.8 -4.05,-1.2 -6.9,-2.85 z"
           id="path99" />
        <path
           d="m 100.19989,0.75 1.5,-13.95 q 4.5,0 7.8,-1.05 3.3,-1.2 5.1,-4.05 1.8,-2.85 1.8,-8.1 0,-4.05 -1.2,-9.45 -1.05,-5.55 -3,-11.55 -1.8,-6 -4.05,-11.55 l 13.65,-4.65 q 1.95,4.95 3.6,11.4 1.8,6.3 3,12.9 1.35,6.45 1.35,12.15 0,6.15 -1.5,10.8 -1.5,4.5 -4.2,7.8 -2.55,3.3 -6.3,5.4 -3.75,1.95 -8.25,3 -4.35,0.9 -9.3,0.9 z m 16.2,29.55 q -3.45,0 -5.85,-2.4 -2.25,-2.25 -2.25,-5.4 0,-3.3 2.25,-5.7 2.4,-2.4 5.85,-2.4 3.15,0 5.4,2.4 2.4,2.4 2.4,5.7 0,3.3 -2.4,5.55 -2.25,2.25 -5.4,2.25 z"
           id="path101" />
        <path
           d="m 5.85,0.15 q 0,-2.85 0.6,-7.05 0.6,-4.35 2.25,-9.9 1.65,-5.7 5.1,-12.6 l 12,5.25 q -1.95,4.65 -3.3,8.7 -1.35,3.9 -2.1,7.35 -0.6,3.3 -0.6,6.6 0,7.35 3.15,12.3 3.3,5.1 8.55,7.5 5.4,2.55 11.85,2.55 11.85,0 18.15,-4.95 6.3,-4.8 8.55,-14.4 2.4,-9.45 1.95,-23.55 l -3,-84.6 h 14.4 l 2.25,73.95 q 0.3,7.8 2.4,12.15 2.25,4.2 5.7,5.85 3.6,1.5 7.95,1.5 3.75,0 5.4,1.95 1.65,1.8 1.65,4.8 0,3 -2.1,5.1 -1.95,2.1 -6.3,2.1 -3.45,0 -6.6,-0.9 Q 90.6,-1.2 88.05,-3 85.65,-4.95 84,-7.8 q -1.65,-2.85 -2.4,-6.75 l 4.2,3 q -0.45,9.75 -3,18.15 -2.55,8.4 -7.65,14.7 -5.1,6.3 -13.2,9.75 -7.95,3.6 -19.2,3.6 -7.2,0 -13.95,-2.25 -6.6,-2.1 -11.85,-6.45 -5.1,-4.35 -8.1,-10.8 -3,-6.3 -3,-15 z"
           id="path103" />
      </g>
    </g>
  </g>
</svg>
