<?xml version="1.0" encoding="utf-8"?>
<!-- Generator: Adobe Illustrator 24.3.0, SVG Export Plug-In . SVG Version: 6.00 Build 0)  -->
<svg version="1.1" id="Layer_1" xmlns="http://www.w3.org/2000/svg" xmlns:xlink="http://www.w3.org/1999/xlink" x="0px" y="0px"
	 viewBox="0 0 1000 1000" style="enable-background:new 0 0 1000 1000;" xml:space="preserve">
<style type="text/css">
	.st0{fill:#231F20;}
</style>
<g>
	<polygon class="st0" points="707,171.5 707,172 707.1,172 	"/>
	<g>
		<g>
			<path class="st0" d="M432.1,603H299.5V205.3h-11.3V603v11.3c72.8,0,207,0,279.9,0v-136h-136V603z"/>
			<path class="st0" d="M431.9,205.3v136h136V216.7h132.6v397.7h11.3V216.7v-11.3C639,205.3,504.8,205.3,431.9,205.3z"/>
		</g>
		<g>
			<polygon class="st0" points="175.3,720.9 111.4,720.9 111.4,667.8 89.5,667.8 89.5,791.9 111.4,791.9 111.4,741.2 175.3,741.2 
				175.3,791.9 197,791.9 197,667.8 175.3,667.8 			"/>
			<path class="st0" d="M363.1,739c0,21.9-13.3,35.2-33.8,35.2c-20.6,0-33.8-13.3-33.8-35.2v-71.2h-21.9V739
				c0,17,5.1,30.7,15.1,40.7c10.2,10,23.7,15,40.5,15c16.8,0,30.3-4.9,40.3-15c10.2-10,15.3-23.7,15.3-40.7v-71.2h-21.9V739z"/>
			<path class="st0" d="M530.7,728.6c14.4-3.8,23-14.6,23-29c0-21-15.5-32.7-43.4-32.7c-13.7,0-30.5,0.4-50.4,0.9v124.1
				c18.6,1.1,36.1,1.6,52.7,1.6c29.4,0,47.1-13,47.1-35.8C559.8,743.2,548.8,732.1,530.7,728.6z M481.8,686.4c2.9,0,7.3,0,13.1-0.2
				c5.8-0.2,10-0.2,12.8-0.2c17.3,0,25.4,5.1,25.4,16.8c0,11-8.9,17.9-23,17.9h-28.3V686.4z M510.1,774.2c-5.5,0-15-0.2-28.3-0.7
				v-34.1H514c14.8,0,24.3,6.2,24.3,16.6C538.2,768.2,528.9,774.2,510.1,774.2z"/>
			<path class="st0" d="M718.2,739c0,21.9-13.3,35.2-33.8,35.2c-20.6,0-33.8-13.3-33.8-35.2v-71.2h-21.9V739
				c0,17,5.1,30.7,15.1,40.7c10.2,10,23.7,15,40.5,15c16.8,0,30.3-4.9,40.3-15c10.2-10,15.3-23.7,15.3-40.7v-71.2h-21.9V739z"/>
			<path class="st0" d="M896.3,677.9c-9.3-7.8-21.7-11.7-36.9-11.7c-11.9,0-26.6,0.5-44.3,1.6v124.1H837v-38.7h22.4
				c15.1,0,27.4-4,36.9-12c9.5-8.2,14.2-18.8,14.2-31.8C910.5,696.1,905.8,685.7,896.3,677.9z M861.8,733.3H837v-46.2
				c7.3-0.5,15.5-0.7,24.8-0.7c16.2,0,27.4,8.6,27.4,23.2C889.1,724,877.8,733.3,861.8,733.3z"/>
		</g>
	</g>
</g>
</svg>
