<?xml version="1.0" encoding="utf-8"?>
<!-- Generator: Adobe Illustrator 19.0.0, SVG Export Plug-In . SVG Version: 6.00 Build 0)  -->
<svg version="1.1" id="Layer_1" xmlns="http://www.w3.org/2000/svg" xmlns:xlink="http://www.w3.org/1999/xlink" x="0px" y="0px"
	 viewBox="0 0 1920 1080" style="enable-background:new 0 0 1920 1080;" xml:space="preserve">
<style type="text/css">
	.st0{fill:#F05B5D;}
	.st1{fill:#FFFFFF;}
	.st2{fill:none;}
</style>
<path class="st0" d="M983,358c0,0-0.1,0.1-0.4,0.1v-0.2C982.9,357.9,983,358,983,358"/>
<path class="st1" d="M670,309.5l-0.3,4c-4.6,52.1-20.4,97.3-47.4,135.7c-26.7,37.9-62.7,67.1-108.1,87.8c-0.6,0.3-1.1,0.5-1.5,0.7
	c-46,20.8-94.3,29-144.8,24.5c-43-3.8-83.7-16.4-121.8-38.2c-38.2-21.6-70.4-50.5-96.3-86.5l0.6-0.5c-0.2-0.2-0.4-0.5-0.6-0.8
	c-7.3-11.1-29.5-46.5-38.5-99c-2.7-15.6-3.4-27.8-3.6-33.4c-0.6-17.2,0.4-34.4,3.3-51.8h100.6c-5.5,25.3-7.1,51.4-2.6,76.7
	c14,78.8,93.2,130,169,137.3c0.9,0.1,1.9,0.1,2.9,0.2c36,2.7,68.5-3.9,97.7-19.8c10.4-5.6,20.4-12.4,29.9-20.4
	c37.1-31.1,57.8-71.5,62.2-121.3c3-34.7-1.8-66.3-14.6-94.5c-12.8-28.2-32.3-51.4-58.6-69.1c-7.6-5.2-15.6-9.7-23.9-13.6l8.9-100.6
	c50.9,15,93.3,42.4,126.9,82.4C655.7,164.1,676,230.9,670,309.5"/>
<path class="st1" d="M1006.4,308.7c-0.1,1.3-0.2,2.7-0.3,4c-4.5,52.1-20.3,97.2-47.5,135.7c-26.7,37.9-62.7,67.1-108.1,87.8
	c0,0,0,0-0.1,0c0,0,0,0-0.1,0c0,0-0.1,0-0.1,0h0c-0.4,0.2-0.8,0.4-1.3,0.6c-22.3,10.1-45.1,17.2-68.5,21.3
	c-13.5,2.4-41.2,6.3-76.3,3.2c-25.3-2.3-46.3-7.4-62-12.4c28.1-28.1,56.1-56.1,84.2-84.2c17.1,0.9,40.2-0.1,64.1-8.5
	c11.4-4,20.7-8.8,24.4-10.8c10.4-5.6,20.4-12.4,29.9-20.4c37.1-31.1,57.8-71.5,62.2-121.4c3-34.7-1.8-66.3-14.6-94.5
	c-12.8-28.2-32.3-51.3-58.6-69.1c-7.6-5.1-15.6-9.7-23.8-13.6L819,26C870,41,912.3,68.5,946,108.4
	C992.2,163.4,1012.5,230.1,1006.4,308.7"/>
<path class="st1" d="M1807.6,236.8c-18.8-32.7-45.2-58.8-78.8-77.9c-33.7-19.1-69.7-28.8-108.1-28.8c-52.9,0-99.8,18.5-140.5,55.3
	c-32.1,29.2-65.6,72.2-99.6,105.3c-6.1,6-12.5,12.1-18.8,18.2c4.6-78.1-16.4-144.7-62.7-199.8c-8.1-9.6-24.8-29.2-51.2-47
	c-39.2-26.5-79.2-35-105.3-37.9c3.3,34.7,6.6,69.3,9.9,104c7.8,2.3,19,6.3,31.2,13.7c20.5,12.4,32.3,27.3,39.4,36.4
	c8.3,10.6,15.3,22.2,21,34.8c13.1,29.1,18.1,61.6,15,97.4c-6.3,72.3-56,137.5-125.9,159.3c-22.5,7-46.3,9.1-69.8,7.4
	c-0.2,0-0.3,0-0.5,0c-0.8-0.1-1.7-0.1-2.5-0.2c-13.7-1.2-26.9-3.6-39.7-7.4L969.5,558c25.8,9.7,52.6,15.7,80.4,18.1
	c62.1,5.4,124.6-10.6,179.9-38.4c81.6-41,148.9-107.4,212.1-172c27.1-27.7,53.5-56,80.1-84.1c4.8-5.1,9.6-10.1,14.3-15.2
	c2.4-2.5,4.7-5,7.1-7.4c21-22,47.4-33.1,78.9-33.1c32.4,0,58.8,10.9,79.7,32.7c20.8,21.8,31,50,31,84.8c0,34.9-10.6,63.3-31.7,85.4
	c-21.1,22.1-47.6,33.2-79.5,33.2c-31.8,0-58-10.9-78.8-32.8c-20.9-21.9-31.2-50.4-31.2-85.8c0-4.6,0.2-9.1,0.6-13.5
	c-26.3,26.5-57.3,57.7-89.6,88.3c10.2,28.1,26.6,53.7,49.3,76.4c41.1,41.4,90.8,62.1,149,62.1c39.6,0,75.7-9.4,108.6-28.1
	c32.8-18.8,58.7-44.8,77.8-78.2c19-33.4,28.5-69.1,28.5-107.4C1836,305,1826.6,269.6,1807.6,236.8"/>
<path d="M1056.3,556.3c-5.5-0.8-10.9-1.8-16.3-2.9L1056.3,556.3z"/>
<path class="st0" d="M656.2,735.9c28.5,0,55.3,7.2,80.4,21.4c25,14.2,44.6,33.6,58.7,58c14.1,24.5,21.1,50.8,21.1,79.1
	c0,28.5-7.1,55.1-21.2,80c-14.2,24.8-33.4,44.1-57.9,58.2c-24.4,13.9-51.4,20.9-80.8,20.9c-43.3,0-80.3-15.4-110.9-46.2
	c-16.9-17-29.1-35.9-36.7-56.9c24-22.7,47.1-46,66.7-65.7c-0.3,3.3-0.4,6.6-0.4,10.1c0,26.3,7.7,47.6,23.2,63.8
	c15.4,16.3,35,24.4,58.6,24.4c23.7,0,43.4-8.2,59.1-24.7c15.7-16.5,23.6-37.6,23.6-63.6c0-25.9-7.7-46.9-23.1-63.1
	c-15.5-16.2-35.3-24.3-59.3-24.3c-23.5,0-43.1,8.2-58.8,24.6c-32.3,33.9-60.7,66-95.2,99.2l0,0c-47,45.6-99.7,92.6-135.9,107.9
	c-26.8,11.4-57.4,17-91.9,17c-63.4,0-115.4-20.1-155.9-60.3C79.3,955.4,59,903.8,59,840.9c0-40.7,9.2-76.9,27.7-108.6
	c18.4-31.6,44.7-57,79.1-76.3c34.3-19.2,71.2-28.9,110.9-28.9c33.7,0,66.1,7.1,97.3,21.4c31.2,14.2,58.1,34.5,80.6,60.7l-54.4,51.9
	c-37.1-39-78.6-58.6-124.9-58.6c-39.1,0-72,13.4-98.7,40c-26.7,26.6-40.1,59.5-40.1,98.5c0,27.2,5.9,51.4,17.7,72.4
	c11.8,21.1,28.6,37.7,50.2,49.7c21.7,12.1,45.8,18,72.2,18c22.5,0,43.2-4.2,62-12.6c27.1-12.2,65.5-44.5,102.7-78.9
	c12.3-11.4,24.5-23.1,36.1-34.4c25.3-24.7,50.2-56.6,74.1-78.4C581.9,749.6,616.7,735.9,656.2,735.9"/>
<path class="st0" d="M1805.4,767.1c-20.6-20.8-45.8-31.2-75.8-31.2c-15.4,0-30.5,3.2-45.5,9.7c-15,6.4-30,15.9-44.7,28.7V627.1
	h-75.3v418.6h75.3V924.5c0-32.4,1.1-53.2,3.3-62.3c4.3-17.5,11.9-31.4,22.9-41.6c11-10.2,24.2-15.3,39.6-15.3
	c11.8,0,21.7,3.1,29.7,9.2c8.1,6.1,13.7,15.3,17.2,27.8c3.3,12.3,4.9,36,4.9,71.1v132.4h74.7V846.2
	C1831.7,811.3,1823,785,1805.4,767.1L1805.4,767.1z"/>
<path class="st0" d="M1083.6,743.7V777c-13.5-13.6-28.2-24-44.1-30.8c-15.9-6.8-33-10.3-51.1-10.3c-39.4,0-73,15-100.5,44.7
	c-27.6,29.8-41.3,68-41.3,114.7c0,45,14.2,82.6,42.7,112.8c28.5,30.2,62.3,45.4,101.3,45.4c17.4,0,33.5-3.1,48.5-9.3
	c14.9-6.3,29.8-16.3,44.5-30.4v32h75.5V743.7H1083.6z M1063.6,959.3c-15.7,16.6-35.5,24.9-59.4,24.9c-23.1,0-42.6-8.4-58.5-25.3
	C929.9,942,922,920.6,922,894.5c0-25.9,7.8-47.1,23.3-63.7c15.5-16.6,35-24.8,58.5-24.8c24.1,0,44,8.2,59.7,24.4
	c15.7,16.2,23.6,37.5,23.6,63.8C1087.2,921,1079.3,942.8,1063.6,959.3z"/>
<path class="st0" d="M1371.3,984.5c-27.4,0-49.5-8.2-66.4-24.4c-16.9-16.3-25.2-37.3-25.2-63.1c0-26.5,8.7-48.2,26.2-65.1
	c17.5-16.9,40.5-25.4,68.8-25.4c15.5,0,29.1,2.4,40.7,7.2c11.5,4.8,23.2,13.4,35,25.8l63-34.7c-15.2-22-34.7-39-58.6-51
	c-23.9-12-50.8-17.9-80.7-17.9c-32.4,0-61.7,7.1-87.9,21.1c-26.2,14.1-46.5,33.4-61.2,58c-14.6,24.6-21.9,51.6-21.9,80.8
	c0,42.2,15.1,79,45.1,110.5c30,31.5,71.6,47.2,124.8,47.2c59,0,104.7-21,137.1-63l-59.7-40.8
	C1431.6,972.8,1405.2,984.5,1371.3,984.5L1371.3,984.5z"/>
<rect x="498" y="351.6" transform="matrix(0.7445 0.6676 -0.6676 0.7445 432.9441 -274.3394)" class="st0" width="153.7" height="153.7"/>
<rect y="0" class="st2" width="1920" height="1080"/>
</svg>
